# xmcd CD database file
#
# Track frame offsets:
#	150
#	10720
#	26323
#	35236
#	42750
#	55477
#	67146
#	75436
#	85129
#	97625
#
# Disc length: 1512 seconds
#
# Revision: 0
# Processed by: cddbd v1.5.2PL0 Copyright (c) Steve Scherf et al.
# Submitted via: CDex 1.50
#
DISCID=6e05e60a
DTITLE=Willie Nelson - American Classics - Blues Eyes Crying CD 1
DYEAR=2006
DGENRE=Country
TTITLE0=Blue eyes crying
TTITLE1=Mamas don't let your babies
TTITLE2=Why are you picking on me
TTITLE3=I gotta get drunk
TTITLE4=I just don't understand
TTITLE5=Last letter
TTITLE6=You wouldn't cross the street
TTITLE7=Let's pretend
TTITLE8=Half a man
TTITLE9=I can't help it
EXTD=YEAR: 2006
EXTT0=
EXTT1=
EXTT2=
EXTT3=
EXTT4=
EXTT5=
EXTT6=
EXTT7=
EXTT8=
EXTT9=
PLAYORDER=
